<svg xmlns="http://www.w3.org/2000/svg" xmlns:xlink="http://www.w3.org/1999/xlink" width="60" height="60" viewBox="0 0 60 60"><defs><clipPath id="a"><rect width="60" height="60" transform="translate(710 1148)" fill="#7d3c3c" stroke="#707070" stroke-width="1"/></clipPath></defs><g transform="translate(-710 -1148)" clip-path="url(#a)"><g transform="translate(710 1148)"><circle cx="30" cy="30" r="30" transform="translate(0 0)" fill="#592b49"/><path d="M59.935,28.043,49.627,17.736H45v8.692a6.546,6.546,0,0,0-5.07-2.436,7.877,7.877,0,0,0-1.472.135l-6.39-6.39H26.423l-3.635,5.945-5.945-5.945h-5.7l7.474,11.54L10.373,41.869,28.465,59.961Q29.228,60,30,60A30,30,0,0,0,60,30C60,29.342,59.976,28.69,59.935,28.043Z" fill="#291221"/><path d="M10.373,41.869,18.62,29.276l-7.474-11.54h5.7l4.84,7.753,4.741-7.753h5.646L24.563,29.457,32.81,41.869H26.933l-5.35-8.346-5.367,8.346Z" fill="#da2286"/><path d="M49.627,41.869h-4.3V39.3a6.94,6.94,0,0,1-2.527,2.23,6.485,6.485,0,0,1-2.938.733A6.659,6.659,0,0,1,34.7,39.836a9.877,9.877,0,0,1-2.148-6.774q0-4.445,2.09-6.757a6.816,6.816,0,0,1,5.284-2.313A6.548,6.548,0,0,1,45,26.428V17.736h4.626V41.869Zm-12.346-9.12a8,8,0,0,0,.774,4.05,3.5,3.5,0,0,0,3.128,1.811A3.4,3.4,0,0,0,43.9,37.251a6.269,6.269,0,0,0,1.119-4.058,6.861,6.861,0,0,0-1.086-4.338,3.439,3.439,0,0,0-2.782-1.325,3.475,3.475,0,0,0-2.757,1.309A5.913,5.913,0,0,0,37.281,32.749Z" fill="#da2286"/></g></g></svg>