<svg xmlns="http://www.w3.org/2000/svg" xmlns:xlink="http://www.w3.org/1999/xlink" width="60" height="60" viewBox="0 0 60 60"><defs><clipPath id="a"><rect width="60" height="60" transform="translate(630 1148)" fill="#7d3c3c" stroke="#707070" stroke-width="1"/></clipPath></defs><g transform="translate(-630 -1148)" clip-path="url(#a)"><g transform="translate(630 1148)"><path d="M0,52.264A7.736,7.736,0,0,0,7.736,60H52.264A7.736,7.736,0,0,0,60,52.264V7.736A7.736,7.736,0,0,0,52.264,0H7.736A7.736,7.736,0,0,0,0,7.736Z" fill="#563d7c"/><path d="M24.881,26.54v-8.5H32.36a11.645,11.645,0,0,1,2.061.178,5.148,5.148,0,0,1,1.755.636A3.388,3.388,0,0,1,37.4,20.129a4.224,4.224,0,0,1,.458,2.086,3.843,3.843,0,0,1-1.374,3.307A5.742,5.742,0,0,1,32.97,26.54Zm-7.988-14.7V48.164H34.5a18.573,18.573,0,0,0,4.757-.611,12.723,12.723,0,0,0,4.121-1.882,9.273,9.273,0,0,0,2.875-3.282,10,10,0,0,0,1.069-4.757,10.066,10.066,0,0,0-1.654-5.826,8.732,8.732,0,0,0-5.012-3.384,9.052,9.052,0,0,0,3.689-3,7.957,7.957,0,0,0,1.247-4.579,9.744,9.744,0,0,0-.84-4.274,6.981,6.981,0,0,0-2.366-2.773,10.214,10.214,0,0,0-3.663-1.5,22.624,22.624,0,0,0-4.732-.458Zm7.988,30.121V31.984h8.7a6.732,6.732,0,0,1,4.172,1.2,4.7,4.7,0,0,1,1.577,3.994,4.993,4.993,0,0,1-.483,2.34,3.839,3.839,0,0,1-1.3,1.45,5.5,5.5,0,0,1-1.883.763,10.664,10.664,0,0,1-2.239.229Z" fill="#fff"/></g></g></svg>