<svg xmlns="http://www.w3.org/2000/svg" xmlns:xlink="http://www.w3.org/1999/xlink" width="459" height="329" viewBox="0 0 459 329"><defs><clipPath id="a"><rect width="459" height="329" fill="#fff" stroke="#707070" stroke-width="1"/></clipPath></defs><g clip-path="url(#a)"><g transform="translate(65 8)"><path d="M329,57.832v58.475l-24.867,19.277H19.277L0,116.307V57.832Z" fill="#00abe9"/><path d="M329,57.832v58.475l-24.867,19.277H164.5V57.832Z" fill="#1a96e2"/><path d="M0,116.307V329H329V116.307Z" fill="#deecf1"/><rect width="164.5" height="212.693" transform="translate(164.5 116.307)" fill="#c6e2e7"/><path d="M164.5,0a48.211,48.211,0,0,0-48.193,48.193V96.387h96.387V48.193A48.211,48.211,0,0,0,164.5,0Zm9.639,57.832H154.861V38.555h19.277Z" fill="#005285"/><path d="M97.029,212.693A58,58,0,0,0,39.2,270.525V289.8H154.861V270.525A58,58,0,0,0,97.029,212.693Z" fill="#00abe9"/><g transform="translate(174.139 174.139)"><rect width="116.307" height="19.277" fill="#005285"/><rect width="116.307" height="19.277" transform="translate(0 38.555)" fill="#005285"/><rect width="38.555" height="19.277" transform="translate(0 77.109)" fill="#005285"/><rect width="58.475" height="19.277" transform="translate(57.832 77.109)" fill="#005285"/></g><path d="M125.945,183.777a28.916,28.916,0,1,1-28.916-28.916A28.877,28.877,0,0,1,125.945,183.777Z" fill="#00abe9"/><path d="M212.693,48.193V96.387H164.5V57.832h9.639V38.555H164.5V0A48.211,48.211,0,0,1,212.693,48.193Z" fill="#003e67"/><g transform="translate(97.029 154.861)"><path d="M154.861,270.525V289.8H97.029V212.693A58,58,0,0,1,154.861,270.525Z" transform="translate(-97.029 -154.861)" fill="#1a96e2"/><path d="M125.945,183.777a28.877,28.877,0,0,1-28.916,28.916V154.861A28.876,28.876,0,0,1,125.945,183.777Z" transform="translate(-97.029 -154.861)" fill="#1a96e2"/></g></g></g></svg>