<svg xmlns="http://www.w3.org/2000/svg" xmlns:xlink="http://www.w3.org/1999/xlink" width="60" height="60" viewBox="0 0 60 60"><defs><clipPath id="a"><rect width="60" height="60" transform="translate(369 1148.5)" fill="#7d3c3c" stroke="#707070" stroke-width="1"/></clipPath></defs><g transform="translate(-369 -1148.5)" clip-path="url(#a)"><g transform="translate(369 1148.5)"><path d="M30,.624a30.137,30.137,0,0,0-9.476,58.7c1.5.278,2.048-.653,2.048-1.451,0-.716-.026-2.61-.041-5.123-8.344,1.819-10.106-4.039-10.106-4.039C11.059,45.231,9.09,44.3,9.09,44.3c-2.726-1.868.2-1.83.2-1.83a6.3,6.3,0,0,1,4.594,3.105c2.677,4.6,7.024,3.274,8.734,2.5a6.429,6.429,0,0,1,1.9-4.028c-6.66-.761-13.665-3.345-13.665-14.884a11.675,11.675,0,0,1,3.09-8.085,10.853,10.853,0,0,1,.293-7.969s2.52-.81,8.25,3.086a28.317,28.317,0,0,1,15.023,0c5.726-3.9,8.243-3.086,8.243-3.086a10.869,10.869,0,0,1,.3,7.969,11.652,11.652,0,0,1,3.082,8.085c0,11.569-7.012,14.115-13.695,14.861,1.076.93,2.036,2.767,2.036,5.576,0,4.028-.038,7.275-.038,8.261,0,.806.54,1.744,2.063,1.447A30.14,30.14,0,0,0,30,.624Z"/></g></g></svg>