<svg xmlns="http://www.w3.org/2000/svg" xmlns:xlink="http://www.w3.org/1999/xlink" width="42" height="41" viewBox="0 0 42 41"><defs><clipPath id="a"><ellipse cx="21" cy="20.5" rx="21" ry="20.5" transform="translate(1125 1782)" fill="#fff" stroke="#707070" stroke-width="1"/></clipPath></defs><g transform="translate(-1125 -1782)" clip-path="url(#a)"><g transform="translate(1125 1781.5)"><path d="M36.381,34.284l-14.875-10.5a.875.875,0,0,0-1.01,0L5.621,34.284A.875.875,0,0,0,5.25,35v.875a.875.875,0,0,0,.875.875h29.75a.875.875,0,0,0,.875-.875V35A.875.875,0,0,0,36.381,34.284Z" fill="#cfd8dc"/><path d="M21.506,23.784,6.631,13.284A.875.875,0,0,0,5.25,14V35a.875.875,0,0,0,1.381.716l14.875-10.5a.875.875,0,0,0,0-1.43Z" fill="#fafafa"/><path d="M36.278,13.223a.886.886,0,0,0-.908.061l-14.875,10.5a.875.875,0,0,0,0,1.43l14.875,10.5A.875.875,0,0,0,36.75,35V14A.875.875,0,0,0,36.278,13.223Z" fill="#eee"/><path d="M38.456,5.852a.875.875,0,0,0-.831-.6H4.375A.875.875,0,0,0,3.85,6.825l16.625,12.25a.875.875,0,0,0,1.038,0L38.138,6.825A.875.875,0,0,0,38.456,5.852Z" fill="#eceff1"/><path d="M37.625,5.25a.875.875,0,0,0-.525.175L21,17.288,4.9,5.425a.875.875,0,0,0-.525-.175A4.375,4.375,0,0,0,0,9.625v22.75A4.375,4.375,0,0,0,4.375,36.75h1.75A.875.875,0,0,0,7,35.875V15.689l13.494,9.527a.875.875,0,0,0,1.01,0L35,15.689V35.875a.875.875,0,0,0,.875.875h1.75A4.375,4.375,0,0,0,42,32.375V9.625A4.375,4.375,0,0,0,37.625,5.25Z" fill="#f44336"/></g></g></svg>