<svg xmlns="http://www.w3.org/2000/svg" xmlns:xlink="http://www.w3.org/1999/xlink" width="60" height="60" viewBox="0 0 60 60"><defs><clipPath id="a"><rect width="60" height="60" transform="translate(971 1148)" fill="#7d3c3c" stroke="#707070" stroke-width="1"/></clipPath></defs><g transform="translate(-971 -1148)" clip-path="url(#a)"><g transform="translate(974.114 1148)"><path d="M0,0,5.187,54.082,27.04,60l21.544-5.918L53.772,0ZM0,0" fill="#fd982c"/><path d="M27.041,0V60l21.544-5.918L53.772,0Zm0,0" fill="#fa502e"/><path d="M43.028,18.677H20.076l.384,4.2H42.919L41.1,46.335l-14.083,4.1-15.115-4.7V36.216H21.3V39.05l5.728,1.77,5.427-1.771.4-7.024H12.052L9.7,9.645H43.028Zm0,0" fill="#fff"/><path d="M27.041,9.646H43.028v9.032H27.041Zm0,0" fill="#deecf1"/><path d="M32.845,32.024l-.4,7.024-5.409,1.766v9.612L41.1,46.335l1.815-23.46H27.041v9.149Zm0,0" fill="#deecf1"/></g></g></svg>