<svg xmlns="http://www.w3.org/2000/svg" xmlns:xlink="http://www.w3.org/1999/xlink" width="60" height="60" viewBox="0 0 60 60"><defs><clipPath id="a"><rect width="60" height="60" transform="translate(394 1161)" fill="#7d3c3c" stroke="#707070" stroke-width="1"/></clipPath></defs><g transform="translate(-394 -1161)" clip-path="url(#a)"><g transform="translate(394 1161)"><path d="M60,30a29.848,29.848,0,1,1-2.107-11.067A29.911,29.911,0,0,1,60,30Z" fill="#e4ba42"/><path d="M45.826,27.3c-.835-2.422-4.259-2.422-4.927-.418s1.587,3.173,5.094,4.342,5.678,4.259,5.261,7.014-1.587,6.346-8.517,6.346A8.995,8.995,0,0,1,34.8,39.848l3.927-2.36s1.336,2.839,3.841,2.839,3.507-.835,3.507-2.756c0-2.338-8.1-3.173-9.352-7.181s.418-9.686,6.263-9.269a9.061,9.061,0,0,1,6.736,3.364Z" fill="#f2f2f2"/><path d="M27.623,21.54V37.572a2.648,2.648,0,0,1-3.34,2.589c-1.67-.334-2.422-2.338-2.422-2.338L18.02,40.411s.835,3.841,6.1,4.175,8.267-2.839,8.267-5.511V21.54Z" fill="#f2f2f2"/><path d="M8.668,5.3V51.093a30.015,30.015,0,0,0,4.047,3.43h34.57a30.077,30.077,0,0,0,3.285-2.687H11.355V7.985H55.2V46.276a29.837,29.837,0,0,0,2.688-5.209V5.3Z" fill="#f2f2f2"/><circle cx="4.76" cy="4.76" r="4.76" transform="translate(5.536 34.984)" fill="#3f4a43"/></g></g></svg>