<svg xmlns="http://www.w3.org/2000/svg" xmlns:xlink="http://www.w3.org/1999/xlink" width="42" height="41" viewBox="0 0 42 41"><defs><clipPath id="a"><rect width="42" height="41" transform="translate(490 321)" fill="#fff" stroke="#707070" stroke-width="1"/></clipPath></defs><g transform="translate(-490 -321)" clip-path="url(#a)"><g transform="translate(490.5 321)"><path d="M20.5,0A20.5,20.5,0,1,1,0,20.5,20.5,20.5,0,0,1,20.5,0Z" fill="#0e76a8"/><path d="M11.552,28.167H15.39V15.372H11.552ZM26.507,14.929a5.762,5.762,0,0,0-4.712,2.182V15.33H17.941V28.167h3.853V21.225a3.047,3.047,0,0,1,3.028-2.9c1.684,0,2.1,1.431,2.1,2.862v6.976h3.839V20.9C30.759,15.859,28.371,14.929,26.507,14.929Zm-13.053-.835a1.922,1.922,0,1,0-1.922-1.922A1.923,1.923,0,0,0,13.453,14.094Z" fill="#fff"/></g></g></svg>