<svg xmlns="http://www.w3.org/2000/svg" xmlns:xlink="http://www.w3.org/1999/xlink" width="42" height="41" viewBox="0 0 42 41"><defs><clipPath id="a"><ellipse cx="21" cy="20.5" rx="21" ry="20.5" transform="translate(1030 1782)" fill="#fff" stroke="#707070" stroke-width="1"/></clipPath></defs><g transform="translate(-1030 -1782)" clip-path="url(#a)"><g transform="translate(1030.5 1782)"><rect width="41" height="41" fill="#1bd741"/><path d="M6.162,34.853,8.17,27.721a14.314,14.314,0,1,1,5.348,5.239Zm7.732-4.5.438.268a11.887,11.887,0,1,0-3.827-3.741l.3.46L9.644,31.449Z" fill="#fff"/><path d="M16.5,13.8l-.929-.051a1.124,1.124,0,0,0-.8.273,4.233,4.233,0,0,0-1.392,2.133,6.465,6.465,0,0,0,1.5,5.068A15.077,15.077,0,0,0,23,27.133a3.96,3.96,0,0,0,3.354-.415,3,3,0,0,0,1.305-1.9l.148-.693a.481.481,0,0,0-.269-.538L24.4,22.135a.482.482,0,0,0-.583.143l-1.233,1.6a.353.353,0,0,1-.4.118,9.654,9.654,0,0,1-5.224-4.47.356.356,0,0,1,.045-.4l1.178-1.363a.481.481,0,0,0,.078-.5l-1.354-3.167A.481.481,0,0,0,16.5,13.8Z" fill="#fff"/></g></g></svg>